<svg viewBox="-0.5168918918918921 -3.3040000000000003 102.7027027027027 111.24" version="1.1" xmlns="http://www.w3.org/2000/svg" style="max-height: 500px" width="102.7027027027027" height="111.24">
 <g fill-rule="evenodd">
  <path d="m4.168 8.332c0-2.3008 1.8633-4.1641 4.1641-4.1641h58.336c1.1055 0 2.1641 0.4375 2.9453 1.2188l25 25c0.78125 0.78125 1.2188 1.8398 1.2188 2.9453v58.336c0 2.3008-1.8633 4.1641-4.1641 4.1641h-83.336c-2.3008 0-4.1641-1.8633-4.1641-4.1641zm8.332 4.168v75h75v-52.441l-22.559-22.559z"/>
  <path d="m65.07 4.4844c1.5586-0.64453 3.3516-0.28906 4.543 0.90234l25 25c1.1914 1.1914 1.5469 2.9844 0.90234 4.543-0.64453 1.5547-2.1641 2.5703-3.8477 2.5703h-25c-2.3008 0-4.168-1.8672-4.168-4.168v-25c0-1.6836 1.0156-3.2031 2.5703-3.8477zm5.7617 13.91v10.773h10.777z"/>
  <path d="m25 43.75c0-8.0547 6.5273-14.582 14.582-14.582h4.168c8.0547 0 14.582 6.5273 14.582 14.582v2.082h-8.332v-2.082c0-3.4531-2.7969-6.25-6.25-6.25h-4.168c-3.4492 0-6.25 2.7969-6.25 6.25v20.832c0 3.4531 2.8008 6.25 6.25 6.25h4.168c3.4531 0 6.25-2.7969 6.25-6.25v-2.082h8.332v2.082c0 8.0547-6.5273 14.586-14.582 14.586h-4.168c-8.0547 0-14.582-6.5312-14.582-14.586z"/>
 </g>
<text fill="#000000" font-family="Arbeit Regular, Helvetica, Arial-Unicode, Arial, Sans-serif" font-weight="bold" font-size="5.0" y="117.5" x="0.0">Created by Kawalan Icon</text><text fill="#000000" font-family="Arbeit Regular, Helvetica, Arial-Unicode, Arial, Sans-serif" font-weight="bold" font-size="5.0" y="122.5" x="0.0">from Noun Project</text></svg>