<svg viewBox="-0.5168918918918921 12.572 97.83783783783784 79.11" version="1.1" xmlns="http://www.w3.org/2000/svg" style="max-height: 500px" width="97.83783783783784" height="79.11">
 <path fill-rule="evenodd" d="m82.879 79.469h-65.754c-2.6445 0-4.8008-2.1562-4.8008-4.8008v-49.336c0-2.6445 2.1562-4.8008 4.8008-4.8008h65.754c2.6445 0 4.8008 2.1562 4.8008 4.8008v49.336c0 2.6445-2.1562 4.8008-4.8008 4.8008zm-65.754-57.027c-1.5859 0-2.8672 1.2812-2.8672 2.8672v49.336c0 1.5859 1.2812 2.8672 2.8672 2.8672h65.754c1.5859 0 2.8672-1.2812 2.8672-2.8672v-49.336c0-1.5859-1.2812-2.8672-2.8672-2.8672z"/>
 <path fill-rule="evenodd" d="m86.723 29.867h-73.445c-0.52734 0-0.97656-0.42578-0.97656-0.97656s0.42578-0.97656 0.97656-0.97656h73.445c0.52734 0 0.97656 0.42578 0.97656 0.97656s-0.44922 0.97656-0.97656 0.97656z"/>
 <path fill-rule="evenodd" d="m18.426 26.676c-0.91406 0-1.6484-0.75391-1.6484-1.6484 0-0.89453 0.75391-1.6484 1.6484-1.6484s1.6484 0.75391 1.6484 1.6484c0 0.89453-0.73438 1.6484-1.6484 1.6484zm0-1.9336c-0.14062 0-0.28516 0.12109-0.28516 0.28516 0 0.16406 0.12109 0.28516 0.28516 0.28516 0.16406 0 0.28516-0.12109 0.28516-0.28516 0-0.16406-0.12109-0.28516-0.28516-0.28516z"/>
 <path fill-rule="evenodd" d="m23.328 26.676c-0.91406 0-1.6484-0.75391-1.6484-1.6484 0-0.89453 0.75391-1.6484 1.6484-1.6484s1.6484 0.75391 1.6484 1.6484c0 0.89453-0.73437 1.6484-1.6484 1.6484zm0-1.9336c-0.14062 0-0.28516 0.12109-0.28516 0.28516 0 0.16406 0.12109 0.28516 0.28516 0.28516s0.28516-0.12109 0.28516-0.28516c0-0.16406-0.14062-0.28516-0.28516-0.28516z"/>
 <path fill-rule="evenodd" d="m28.23 26.676c-0.91406 0-1.6484-0.75391-1.6484-1.6484 0-0.89453 0.75391-1.6484 1.6484-1.6484s1.6484 0.75391 1.6484 1.6484c0 0.89453-0.73438 1.6484-1.6484 1.6484zm0-1.9336c-0.14062 0-0.28516 0.12109-0.28516 0.28516 0 0.16406 0.12109 0.28516 0.28516 0.28516 0.16406 0 0.28516-0.12109 0.28516-0.28516 0-0.16406-0.14062-0.28516-0.28516-0.28516z"/>
 <path fill-rule="evenodd" d="m33.133 26.676c-0.91406 0-1.6484-0.75391-1.6484-1.6484 0-0.89453 0.75391-1.6484 1.6484-1.6484 0.89453 0 1.6484 0.75391 1.6484 1.6484 0 0.89453-0.73438 1.6484-1.6484 1.6484zm0-1.9336c-0.14062 0-0.28516 0.12109-0.28516 0.28516 0 0.16406 0.12109 0.28516 0.28516 0.28516 0.16406 0 0.28516-0.12109 0.28516-0.28516 0-0.16406-0.14062-0.28516-0.28516-0.28516z"/>
 <path fill-rule="evenodd" d="m27.113 71.676h-4.1094c-0.52734 0-0.97656-0.42578-0.97656-0.97656v-13.957c0-0.52734 0.42578-0.97656 0.97656-0.97656h4.1094c0.52734 0 0.97656 0.42578 0.97656 0.97656v13.957c0 0.55078-0.42578 0.97656-0.97656 0.97656zm-3.1328-1.9336h2.1758v-12.023h-2.1758z"/>
 <path fill-rule="evenodd" d="m58.262 71.676h-38.434c-0.52734 0-0.97656-0.42578-0.97656-0.97656v-34.953c0-0.52734 0.42578-0.97656 0.97656-0.97656s0.97656 0.42578 0.97656 0.97656v33.996h37.457c0.52734 0 0.97656 0.42578 0.97656 0.97656s-0.44922 0.95703-0.97656 0.95703z"/>
 <path fill-rule="evenodd" d="m22.516 40.203c-0.28516 0-0.57031-0.12109-0.77344-0.38672l-1.9141-2.5039-1.9141 2.5039c-0.32422 0.42578-0.9375 0.50781-1.3633 0.18359s-0.50781-0.9375-0.18359-1.3633l2.6875-3.5c0.18359-0.24219 0.46875-0.38672 0.77344-0.38672s0.58984 0.14062 0.77344 0.38672l2.6875 3.5c0.32422 0.42578 0.24219 1.0391-0.18359 1.3633-0.18359 0.14062-0.38672 0.20312-0.58984 0.20312z"/>
 <path fill-rule="evenodd" d="m54.477 74.18c-0.30469 0-0.62891-0.16406-0.8125-0.42578-0.28516-0.44922-0.16406-1.0391 0.26563-1.3438l2.543-1.6875-2.543-1.6875c-0.44922-0.28516-0.57031-0.89453-0.26563-1.3438 0.28516-0.44922 0.89453-0.57031 1.3438-0.26562l3.7656 2.4805c0.26562 0.18359 0.42578 0.48828 0.42578 0.8125s-0.16406 0.62891-0.42578 0.8125l-3.7656 2.4805c-0.16406 0.10156-0.34766 0.16406-0.52734 0.16406z"/>
 <path fill-rule="evenodd" d="m34.742 71.676h-4.1094c-0.52734 0-0.97656-0.42578-0.97656-0.97656v-22.664c0-0.52734 0.42578-0.97656 0.97656-0.97656h4.1094c0.52734 0 0.97656 0.42578 0.97656 0.97656v22.664c-0.019531 0.55078-0.44922 0.97656-0.97656 0.97656zm-3.1523-1.9336h2.1758v-20.73h-2.1758z"/>
 <path fill-rule="evenodd" d="m42.352 71.676h-4.1094c-0.52734 0-0.97656-0.42578-0.97656-0.97656v-18.371c0-0.52734 0.42578-0.97656 0.97656-0.97656h4.1094c0.52734 0 0.97656 0.42578 0.97656 0.97656v18.371c-0.019531 0.55078-0.44922 0.97656-0.97656 0.97656zm-3.1523-1.9336h2.1758v-16.438h-2.1758z"/>
 <path fill-rule="evenodd" d="m49.961 71.676h-4.1094c-0.52734 0-0.97656-0.42578-0.97656-0.97656v-22.887c0-0.52734 0.42578-0.97656 0.97656-0.97656h4.1094c0.52734 0 0.97656 0.42578 0.97656 0.97656v22.887c0 0.55078-0.44922 0.97656-0.97656 0.97656zm-3.1328-1.9336h2.1758v-20.957h-2.1758z"/>
 <path fill-rule="evenodd" d="m62.656 61.484c-1.3242 0-2.6445-0.20312-3.9258-0.58984-0.50781-0.16406-0.79297-0.69141-0.65234-1.1992l3.3555-11.09-11.09-3.3555c-0.50781-0.16406-0.79297-0.69141-0.65234-1.1992 2.1562-7.1406 9.7266-11.168 16.848-9.0117 7.1406 2.1562 11.168 9.7266 9.0117 16.848-1.0391 3.457-3.3789 6.2852-6.5508 7.9961-1.9727 1.0781-4.1523 1.6055-6.3477 1.6055zm-2.4414-2.1992c2.6875 0.57031 5.4531 0.18359 7.8945-1.1172 2.7266-1.4648 4.7188-3.8867 5.6172-6.8555 1.8516-6.1016-1.6289-12.594-7.7305-14.445-5.7969-1.75-11.922 1.2812-14.121 6.8164l11.047 3.3359c0.50781 0.16406 0.79297 0.69141 0.65234 1.1992l-3.3555 11.066z"/>
 <path fill-rule="evenodd" d="m52.809 45.961c-0.20312 0-0.40625-0.0625-0.57031-0.18359-0.42578-0.32422-0.52734-0.91406-0.20312-1.3438l6.7734-9.1953c0.32422-0.42578 0.91406-0.52734 1.3438-0.20312 0.42578 0.32422 0.52734 0.91406 0.20312 1.3438l-6.7734 9.1953c-0.18359 0.24609-0.48828 0.38672-0.77344 0.38672z"/>
 <path fill-rule="evenodd" d="m55.777 46.855c-0.20312 0-0.40625-0.0625-0.57031-0.18359-0.42578-0.32422-0.52734-0.91406-0.20312-1.3438l7.6914-10.457c0.32422-0.42578 0.91406-0.52734 1.3438-0.20312 0.42578 0.32422 0.52734 0.91406 0.20313 1.3438l-7.6914 10.457c-0.18359 0.26562-0.48828 0.38672-0.77344 0.38672z"/>
 <path fill-rule="evenodd" d="m58.75 47.773c-0.20312 0-0.40625-0.0625-0.57031-0.18359-0.42578-0.32422-0.52734-0.91406-0.20313-1.3438l7.8945-10.723c0.32422-0.42578 0.91406-0.52734 1.3438-0.20313 0.42578 0.32422 0.52734 0.91406 0.20312 1.3438l-7.8945 10.723c-0.18359 0.24609-0.46875 0.38672-0.77344 0.38672z"/>
 <path fill-rule="evenodd" d="m61.719 48.668c-0.20312 0-0.40625-0.0625-0.57031-0.18359-0.42578-0.32422-0.52734-0.91406-0.20313-1.3438l7.6094-10.336c0.32422-0.42578 0.91406-0.52734 1.3438-0.20313 0.42578 0.32422 0.52734 0.91406 0.20312 1.3438l-7.6094 10.336c-0.18359 0.24219-0.46875 0.38672-0.77344 0.38672z"/>
<text fill="#000000" font-family="Arbeit Regular, Helvetica, Arial-Unicode, Arial, Sans-serif" font-weight="bold" font-size="5.0" y="117.5" x="0.0">Created by Junaid Ali</text><text fill="#000000" font-family="Arbeit Regular, Helvetica, Arial-Unicode, Arial, Sans-serif" font-weight="bold" font-size="5.0" y="122.5" x="0.0">from Noun Project</text></svg>