<svg viewBox="-0.5168918918918921 8.468 99.72972972972973 83.42999999999999" version="1.1" xmlns="http://www.w3.org/2000/svg" style="max-height: 500px" width="99.72972972972973" height="83.42999999999999">
 <path d="m57.867 53.844v11.906c0 4.4219-3.5977 8.0195-8.0195 8.0195h-13.895l-10.785 12.906c-0.30859 0.37109-0.76172 0.57422-1.2266 0.57422-0.18359 0-0.36719-0.03125-0.54297-0.09375-0.63281-0.23047-1.0547-0.82812-1.0547-1.5039l-0.019531-11.887h-4.3047c-4.4219 0-8.0195-3.5977-8.0195-8.0195v-22.078c0-4.4219 3.5977-8.0195 8.0195-8.0195h21.031c0.88281 0 1.6016 0.71484 1.6016 1.6016 0 0.88281-0.71484 1.6016-1.6016 1.6016h-21.031c-2.6562 0-4.8164 2.1602-4.8164 4.8164v22.078c0 2.6562 2.1602 4.8164 4.8164 4.8164h5.9023c0.88281 0 1.5977 0.71484 1.6016 1.5977l0.015624 9.082 8.4414-10.105c0.30469-0.36328 0.75391-0.57422 1.2266-0.57422h14.645c2.6562 0 4.8164-2.1602 4.8164-4.8164v-11.906c0-0.88281 0.71484-1.6016 1.6016-1.6016 0.88281 0 1.6016 0.71484 1.6016 1.6016zm32.133-33.074v22.078c0 4.4219-3.5977 8.0195-8.0195 8.0195h-4.3047l-0.019531 11.887c0 0.67188-0.42188 1.2734-1.0547 1.5039-0.17969 0.0625-0.36328 0.09375-0.54297 0.09375-0.46484 0-0.91797-0.20312-1.2266-0.57422l-10.785-12.906h-13.895c-4.4219 0-8.0195-3.5977-8.0195-8.0195v-22.078c0-4.4219 3.5977-8.0195 8.0195-8.0195h31.832c4.4219 0 8.0195 3.5977 8.0195 8.0195zm-3.1992 0c0-2.6562-2.1602-4.8164-4.8164-4.8164h-31.832c-2.6562 0-4.8164 2.1602-4.8164 4.8164v22.078c0 2.6562 2.1602 4.8164 4.8164 4.8164h14.645c0.47266 0 0.92578 0.21094 1.2266 0.57422l8.4453 10.105 0.015625-9.082c0-0.88281 0.71875-1.5977 1.6016-1.5977h5.9023c2.6562 0 4.8164-2.1602 4.8164-4.8164v-22.078zm-51.422 23.133 9.5664 20.246c0.37891 0.80078 0.035157 1.7539-0.76172 2.1289-0.22266 0.10547-0.45312 0.15234-0.68359 0.15234-0.60156 0-1.1758-0.33984-1.4492-0.91797l-2.7227-5.7617h-10.797l-2.7227 5.7617c-0.37891 0.80078-1.332 1.1406-2.1289 0.76172-0.80078-0.37891-1.1406-1.332-0.76172-2.1289l9.5664-20.246c0.26562-0.55859 0.82812-0.91406 1.4453-0.91406 0.61719 0 1.1836 0.35547 1.4453 0.91406zm2.4414 12.652-3.8867-8.2266-3.8867 8.2266zm38.758-35.684h-21.027c-0.88281 0-1.6016 0.71484-1.6016 1.6016 0 0.88281 0.71484 1.6016 1.6016 1.6016h13.578c-0.30859 2.1367-1.5586 4.5781-3.5664 7.0977-0.83984-1.3125-1.5195-2.6914-2.0391-4.1328-0.30078-0.83203-1.2148-1.2656-2.0469-0.96484-0.83203 0.30078-1.2617 1.2148-0.96484 2.0469 0.69922 1.9492 1.6523 3.793 2.8516 5.5273-2.0547 2.1016-4.5938 4.2031-7.5078 6.1797-0.73047 0.49609-0.92188 1.4883-0.42969 2.2227 0.30859 0.45703 0.8125 0.70312 1.3242 0.70312 0.30859 0 0.62109-0.089844 0.89453-0.27344 2.9219-1.9805 5.5312-4.1133 7.7109-6.2969 2.0352 2.2812 4.5508 4.3398 7.5391 6.1562 0.75391 0.46094 1.7383 0.21875 2.1992-0.53516 0.46094-0.75391 0.21875-1.7383-0.53516-2.1992-2.8164-1.7148-5.1641-3.6523-7.0234-5.793 0.26172-0.3125 0.51562-0.62109 0.75781-0.93359 2.3906-3.0703 3.7734-6.0781 4.0547-8.8008h4.2266c0.88281 0 1.6016-0.71484 1.6016-1.6016 0-0.88281-0.71484-1.6016-1.6016-1.6016z"/>
<text fill="#000000" font-family="Arbeit Regular, Helvetica, Arial-Unicode, Arial, Sans-serif" font-weight="bold" font-size="5.0" y="117.5" x="0.0">Created by Hermanto</text><text fill="#000000" font-family="Arbeit Regular, Helvetica, Arial-Unicode, Arial, Sans-serif" font-weight="bold" font-size="5.0" y="122.5" x="0.0">from Noun Project</text></svg>