<svg viewBox="-3.0067567567567566 4.846624999999998 108.64864864864865 94.5" version="1.1" xmlns="http://www.w3.org/2000/svg" style="max-height: 500px" width="108.64864864864865" height="94.5">
 <path d="m40.188 51.332-26.992 5.9062c-1.4023 0.30469-2.5703 1.2656-3.1523 2.5742-3.5664 8.0195-6.8555 15.871-9.6719 23.48-1.9961 5.4531 4.6562 11.984 10.07 9.9492 26.273-9.9531 55.824-24.375 85.156-36.906 5.8789-2.5117 5.8789-10.172 0-12.684-29.34-12.523-58.891-26.941-85.164-36.898-5.4141-2.0352-12.066 4.4961-10.074 9.9492 2.8203 7.6094 6.1094 15.461 9.6719 23.48 0.58203 1.3125 1.7539 2.2656 3.1523 2.5742l26.992 5.9062c1.4297 0.3125 1.4297 2.3516 0 2.6641z"/>
<text fill="#000000" font-family="Arbeit Regular, Helvetica, Arial-Unicode, Arial, Sans-serif" font-weight="bold" font-size="5.0" y="117.5" x="0.0">Created by iconbysonny</text><text fill="#000000" font-family="Arbeit Regular, Helvetica, Arial-Unicode, Arial, Sans-serif" font-weight="bold" font-size="5.0" y="122.5" x="0.0">from Noun Project</text></svg>