<svg viewBox="-3.0067567567567566 3.16925 107.83783783783784 96.39" version="1.1" xmlns="http://www.w3.org/2000/svg" style="max-height: 500px" width="107.83783783783784" height="96.39">
 <path d="m24.859 23.645c-0.86328 0-1.5625-0.69922-1.5625-1.5625v-15.793c0-0.86328 0.69922-1.5625 1.5625-1.5625s1.5625 0.69922 1.5625 1.5625v13.73l12.469-3.5156v-0.003906c0.83203-0.23438 1.6953 0.25 1.9297 1.0781 0.23438 0.83203-0.24609 1.6953-1.0781 1.9297l-14.453 4.0859c-0.14062 0.035156-0.28516 0.054688-0.42969 0.050781z"/>
 <path d="m25.57 35.672c-4.1055-0.003906-8.043-1.6328-10.945-4.5391-2.9023-2.9023-4.5352-6.8398-4.5312-10.945 0-4.1055 1.6289-8.043 4.5312-10.945 2.9062-2.9023 6.8438-4.5352 10.949-4.5312 4.1055 0 8.043 1.6289 10.945 4.5312 2.9023 2.9023 4.5312 6.8398 4.5352 10.949v-0.003906c-0.007813 4.1055-1.6367 8.043-4.543 10.945-2.9023 2.9023-6.8359 4.5352-10.941 4.5391zm0-27.836v-0.003907c-4.9961 0.003907-9.5 3.0117-11.414 7.6289-1.9102 4.6172-0.85547 9.9336 2.6797 13.465 3.5352 3.5352 8.8477 4.5898 13.465 2.6797 4.6172-1.9141 7.625-6.418 7.6289-11.414v-0.003906c-0.007813-6.8203-5.5391-12.348-12.359-12.355z"/>
 <path d="m85.789 95.289c-0.86328 0-1.5625-0.69922-1.5625-1.5625v-56.164h-8.6758v56.164c0 0.86328-0.69922 1.5625-1.5625 1.5625s-1.5625-0.69922-1.5625-1.5625v-57.727c0-0.85938 0.69922-1.5625 1.5625-1.5625h11.801c0.41406 0 0.80859 0.16797 1.1016 0.46094 0.29297 0.29297 0.46094 0.6875 0.46094 1.1016v57.727c0 0.41797-0.16797 0.8125-0.46094 1.1055s-0.6875 0.45703-1.1016 0.45703z"/>
 <path d="m65.859 95.289c-0.85938 0-1.5625-0.69922-1.5625-1.5625v-34.043h-8.6719v34.043c0 0.86328-0.69922 1.5625-1.5625 1.5625s-1.5625-0.69922-1.5625-1.5625v-35.605c0-0.85938 0.69922-1.5625 1.5625-1.5625h11.797c0.41797 0 0.8125 0.16797 1.1055 0.46094 0.29297 0.29297 0.45703 0.6875 0.45703 1.1016v35.605c0 0.41797-0.16406 0.8125-0.45703 1.1055-0.29297 0.29297-0.6875 0.45703-1.1055 0.45703z"/>
 <path d="m45.938 95.289c-0.86328 0-1.5625-0.69922-1.5625-1.5625v-41.797h-8.6719v41.797c0 0.86328-0.70312 1.5625-1.5625 1.5625-0.86328 0-1.5625-0.69922-1.5625-1.5625v-43.359c0-0.85938 0.69922-1.5625 1.5625-1.5625h11.797c0.41406 0 0.8125 0.16797 1.1055 0.46094s0.45703 0.6875 0.45703 1.1016v43.359c0 0.41797-0.16406 0.8125-0.45703 1.1055s-0.69141 0.45703-1.1055 0.45703z"/>
 <path d="m26.012 95.289c-0.86328 0-1.5625-0.69922-1.5625-1.5625v-24.324h-8.6758v24.324c0 0.86328-0.69922 1.5625-1.5625 1.5625-0.85938 0-1.5625-0.69922-1.5625-1.5625v-25.887c0-0.86328 0.70312-1.5625 1.5625-1.5625h11.801c0.41406 0 0.8125 0.16406 1.1055 0.45703 0.29297 0.29297 0.45703 0.69141 0.45703 1.1055v25.887c0 0.41797-0.16406 0.8125-0.45703 1.1055-0.29297 0.29297-0.69141 0.45703-1.1055 0.45703z"/>
 <path d="m94.531 95.289h-89.062c-0.86328 0-1.5625-0.69922-1.5625-1.5625v-67.227c0-0.86328 0.69922-1.5625 1.5625-1.5625s1.5625 0.69922 1.5625 1.5625v65.664h87.5c0.86328 0 1.5625 0.70313 1.5625 1.5625 0 0.86328-0.69922 1.5625-1.5625 1.5625z"/>
 <path d="m80.684 27.773c-0.36328 0.003906-0.71484-0.12109-0.99609-0.35156l-9.6055-7.8672c-0.42188-0.34375-0.63281-0.87891-0.55859-1.418 0.074218-0.53906 0.42187-1 0.92187-1.2188l12.531-5.5039h-0.003906c0.53516-0.23047 1.1562-0.14453 1.6094 0.22656 0.45312 0.36719 0.66016 0.96094 0.53906 1.5312l-2.9297 13.367c-0.15625 0.71875-0.79297 1.2305-1.5273 1.2266zm-6.6445-9.0234 5.6641 4.6367 1.7227-7.8828z"/>
 <path d="m19.297 59.203c-0.63281 0-1.2031-0.37891-1.4453-0.96484-0.24219-0.58203-0.10547-1.2539 0.33984-1.6992l18.262-18.258c0.39844-0.39453 0.97266-0.55078 1.5117-0.40625l20.473 5.4844 15.953-22.188c0.50391-0.69922 1.4844-0.85938 2.1836-0.35547s0.85938 1.4805 0.35547 2.1836l-16.578 23.055c-0.37891 0.52734-1.0469 0.76562-1.6719 0.59766l-20.652-5.5312-17.625 17.625h-0.003906c-0.29297 0.29297-0.6875 0.46094-1.1016 0.45703z"/>
<text fill="#000000" font-family="Arbeit Regular, Helvetica, Arial-Unicode, Arial, Sans-serif" font-weight="bold" font-size="5.0" y="117.5" x="0.0">Created by Designing Hub</text><text fill="#000000" font-family="Arbeit Regular, Helvetica, Arial-Unicode, Arial, Sans-serif" font-weight="bold" font-size="5.0" y="122.5" x="0.0">from Noun Project</text></svg>