<svg viewBox="4.236486486486486 7.971875000000001 95.4054054054054 76.94999999999999" version="1.1" xmlns="http://www.w3.org/2000/svg" style="max-height: 500px" width="95.4054054054054" height="76.94999999999999">
 <path fill-rule="evenodd" d="m50 53c7.1797 0 13 5.8203 13 13s-5.8203 13-13 13-13-5.8203-13-13 5.8203-13 13-13zm0 5c-1.1055 0-2 0.89453-2 2v4h-4c-1.1055 0-2 0.89453-2 2s0.89453 2 2 2h4v4c0 1.1055 0.89453 2 2 2s2-0.89453 2-2v-4h4c1.1055 0 2-0.89453 2-2s-0.89453-2-2-2h-4v-4c0-1.1055-0.89453-2-2-2z"/>
 <path d="m56.445 45.875c0.17969 0.015625 0.39063 0.039062 0.60547 0.070312 0.23828 0.035157 0.44141 0.074219 0.57812 0.11328h0.011719l5.1172 3.7734c0.78125 0.57422 1.2422 1.4883 1.2422 2.457v4.0664c-3.0664-4.4414-8.1914-7.3555-14-7.3555s-10.934 2.9141-14 7.3555v-4.0664c0-0.96875 0.46094-1.8828 1.2422-2.457l5.1172-3.7734h0.011719c0.13672-0.039063 0.33984-0.078125 0.57812-0.11328 0.21484-0.03125 0.42578-0.054687 0.60547-0.070312 0.097656 0.089844 0.19531 0.17578 0.29687 0.25781 0.046876 0.039063 0.09375 0.074219 0.13672 0.11328 0.058594 0.046875 0.11719 0.089844 0.17188 0.13672 0.050782 0.039063 0.10156 0.074219 0.15625 0.11328 0.050782 0.039062 0.10156 0.078125 0.15625 0.11328 0.066406 0.046875 0.13281 0.09375 0.19922 0.13672 0.035156 0.023437 0.066406 0.046875 0.10156 0.066406 0.082031 0.054688 0.16016 0.10547 0.24609 0.15625v0.003906c1.4531 0.88281 3.1562 1.3945 4.9805 1.3945 1.9219 0 3.7109-0.57031 5.2109-1.543 0.042968-0.03125 0.089843-0.058594 0.13281-0.089844 0.0625-0.039063 0.125-0.082031 0.18359-0.125 0.046875-0.035156 0.09375-0.066406 0.14062-0.10156 0.058593-0.042968 0.11328-0.085937 0.17188-0.12891 0.058594-0.042968 0.11328-0.089844 0.16797-0.13281 0.046876-0.039063 0.09375-0.074219 0.14063-0.11328 0.097656-0.082031 0.19922-0.16797 0.29687-0.25781z"/>
 <path d="m34.445 37.875c0.17969 0.015625 0.39063 0.039062 0.60547 0.070312 0.23828 0.035157 0.44141 0.074219 0.57812 0.11328h0.011719l5.1172 3.7734c0.078126 0.058594 0.15234 0.12109 0.22656 0.1875 0.03125 0.082031 0.058594 0.16797 0.09375 0.25-0.22266 0.070313-0.5 0.17578-0.76172 0.33984l-0.17188 0.11328-5.2773 3.8906c-0.86719 0.63672-1.5586 1.4609-2.0508 2.3867h-18.816v-4.7109c0-0.96875 0.46094-1.8828 1.2422-2.457l5.1172-3.7734h0.011719c0.13672-0.039063 0.33984-0.078125 0.57812-0.11328 0.21484-0.03125 0.42578-0.054687 0.60547-0.070312 1.7031 1.5469 3.9648 2.4922 6.4453 2.4922s4.7422-0.94531 6.4453-2.4922z"/>
 <path d="m78.445 37.875c0.17969 0.015625 0.39063 0.039062 0.60547 0.070312 0.23828 0.035157 0.44141 0.074219 0.57812 0.11328h0.011719l5.1172 3.7734c0.78125 0.57422 1.2422 1.4883 1.2422 2.457v4.7109h-18.816c-0.49219-0.92578-1.1836-1.75-2.0508-2.3867l-5.2773-3.8906-0.17188-0.11328c-0.26172-0.16406-0.53906-0.26953-0.76172-0.33984 0.035156-0.082031 0.0625-0.16797 0.09375-0.25 0.070313-0.066406 0.14844-0.12891 0.22656-0.1875l5.1172-3.7734h0.011719c0.13672-0.039063 0.33984-0.078125 0.57812-0.11328 0.21484-0.03125 0.42578-0.054687 0.60547-0.070312 1.7031 1.5469 3.9648 2.4922 6.4453 2.4922s4.7422-0.94531 6.4453-2.4922z"/>
 <path d="m50 29c3.082 0 5.5781 2.4961 5.5781 5.5781v4.2109c0 0.42188-0.046875 0.83203-0.13672 1.2305-0.19922 0.88672-0.60938 1.6914-1.1758 2.3633-1.0234 1.2148-2.5547 1.9844-4.2656 1.9844-1.7148 0-3.25-0.77344-4.2734-1.9922-0.5625-0.67188-0.96875-1.4727-1.168-2.3555-0.089844-0.39453-0.13672-0.80859-0.13672-1.2305v-4.2109c0-3.082 2.4961-5.5781 5.5781-5.5781z"/>
 <path d="m28 21c3.082 0 5.5781 2.4961 5.5781 5.5781v4.2109c0 3.082-2.4961 5.5781-5.5781 5.5781s-5.5781-2.4961-5.5781-5.5781v-4.2109c0-3.082 2.4961-5.5781 5.5781-5.5781z"/>
 <path d="m72 21c3.082 0 5.5781 2.4961 5.5781 5.5781v4.2109c0 3.082-2.4961 5.5781-5.5781 5.5781s-5.5781-2.4961-5.5781-5.5781v-4.2109c0-3.082 2.4961-5.5781 5.5781-5.5781z"/>
<text fill="#000000" font-family="Arbeit Regular, Helvetica, Arial-Unicode, Arial, Sans-serif" font-weight="bold" font-size="5.0" y="117.5" x="0.0">Created by HideMaru</text><text fill="#000000" font-family="Arbeit Regular, Helvetica, Arial-Unicode, Arial, Sans-serif" font-weight="bold" font-size="5.0" y="122.5" x="0.0">from Noun Project</text></svg>