<svg viewBox="4.236486486486486 12.777874999999998 94.5945945945946 72.36" version="1.1" xmlns="http://www.w3.org/2000/svg" style="max-height: 500px" width="94.5945945945946" height="72.36">
 <path d="m87.434 22.973h-74.906c-2.2891 0-4.1602 1.7461-4.1602 3.8711v46.316c0 2.1211 1.8711 3.8711 4.1602 3.8711h74.906c2.2891 0 4.1602-1.7461 4.1602-3.8711v-46.32c0-2.1211-1.8711-3.8711-4.1602-3.8711zm-66.5 46.566c0 0.70703-0.53906 1.25-1.25 1.25h-5.8242c-0.70703 0-1.25-0.53906-1.25-1.25v-5.8242c0-0.70703 0.53906-1.25 1.25-1.25h5.8242c0.70703 0 1.25 0.53906 1.25 1.25zm0-16.645c0 0.70703-0.53906 1.25-1.25 1.25h-5.8242c-0.70703 0-1.25-0.53906-1.25-1.25v-5.8242c0-0.70703 0.53906-1.25 1.25-1.25h5.8242c0.70703 0 1.25 0.53906 1.25 1.25zm0-16.645c0 0.70703-0.53906 1.25-1.25 1.25h-5.8242c-0.70703 0-1.25-0.53906-1.25-1.25v-5.8242c0-0.70703 0.53906-1.25 1.25-1.25h5.8242c0.70703 0 1.25 0.53906 1.25 1.25zm41.199 15.188-10.488 6.4922-9.0703 5.6172c-1.5391 0.95703-3.7461 0.082031-3.7461-1.457v-24.219c0-1.5391 2.207-2.3711 3.7461-1.457l9.0703 5.6172 10.488 6.4922c1.207 0.75 1.207 2.1641 0 2.9141zm25.262 18.102c0 0.70703-0.53906 1.25-1.25 1.25h-5.8242c-0.70703 0-1.25-0.53906-1.25-1.25v-5.8242c0-0.70703 0.53906-1.25 1.25-1.25h5.8242c0.70703 0 1.25 0.53906 1.25 1.25zm0-16.645c0 0.70703-0.53906 1.25-1.25 1.25h-5.8242c-0.70703 0-1.25-0.53906-1.25-1.25v-5.8242c0-0.70703 0.53906-1.25 1.25-1.25h5.8242c0.70703 0 1.25 0.53906 1.25 1.25zm0-16.645c0 0.70703-0.53906 1.25-1.25 1.25h-5.8242c-0.70703 0-1.25-0.53906-1.25-1.25v-5.8242c0-0.70703 0.53906-1.25 1.25-1.25h5.8242c0.70703 0 1.25 0.53906 1.25 1.25z"/>
<text fill="#000000" font-family="Arbeit Regular, Helvetica, Arial-Unicode, Arial, Sans-serif" font-weight="bold" font-size="5.0" y="117.5" x="0.0">Created by allen tuladhar</text><text fill="#000000" font-family="Arbeit Regular, Helvetica, Arial-Unicode, Arial, Sans-serif" font-weight="bold" font-size="5.0" y="122.5" x="0.0">from Noun Project</text></svg>